<?xml version="1.0" encoding="UTF-8" standalone="no"?>
<!DOCTYPE svg PUBLIC "-//W3C//DTD SVG 1.1//EN" "http://www.w3.org/Graphics/SVG/1.1/DTD/svg11.dtd">
<!-- Created with Vectornator (http://vectornator.io/) -->
<svg height="100%" stroke-miterlimit="10" style="fill-rule:nonzero;clip-rule:evenodd;stroke-linecap:round;stroke-linejoin:round;" version="1.1" viewBox="0 0 1000 265.482" width="100%" xml:space="preserve" xmlns="http://www.w3.org/2000/svg" xmlns:vectornator="http://vectornator.io" xmlns:xlink="http://www.w3.org/1999/xlink">
<defs/>
<g id="Schrift-kopieren" vectornator:layerName="Schrift kopieren"/>
<g id="Ebene-4" vectornator:layerName="Ebene 4"/>
<g id="Ebene-2" vectornator:layerName="Ebene 2"/>
<g id="Ebene-2--" vectornator:layerName="Ebene 2 -"/>
<g id="Ebene-1-kopieren" vectornator:layerName="Ebene 1 kopieren">
<path d="M299.696 66.5204L352.611 26.67L402.675 26.67L453.48 65.8198C453.48 65.8198 430.221 185.485 430.221 185.485L376.588 226.08L320.875 184.039C320.875 184.039 299.373 71.0741 299.696 64.624" fill="#ff0043" fill-rule="nonzero" opacity="1" stroke="none" vectornator:layerName="Kurve 2"/>
<path d="M352.951 71.404L402.562 173.545L432.13 67.0779L395.875 43.7677L352.951 71.404Z" fill="#e8b3dc" fill-rule="nonzero" opacity="1" stroke="none" vectornator:layerName="Kurve 2"/>
<path d="M376.586 69.4678L403.261 69.1523L454.802 63.119" fill="none" opacity="1" stroke="#330d67" stroke-linecap="butt" stroke-linejoin="round" stroke-width="13.9449" vectornator:layerName="Kurve 8"/>
<path d="M377.908 69.4678L351.233 69.1523L299.692 63.119" fill="none" opacity="1" stroke="#330d67" stroke-linecap="butt" stroke-linejoin="round" stroke-width="13.9449" vectornator:layerName="Kurve 9"/>
<path d="M376.586 41.8961L394.768 41.8961L405.034 28.1285L376.586 28.1285" fill="none" opacity="1" stroke="#330d67" stroke-linecap="butt" stroke-linejoin="round" stroke-width="13.9449" vectornator:layerName="Kurve 10"/>
<path d="M394.768 41.8961L405.034 69.1523L400.374 176.008L377.909 226.08L431.542 183.073L454.802 63.0033L405.034 28.1285" fill="none" opacity="1" stroke="#330d67" stroke-linecap="butt" stroke-linejoin="round" stroke-width="13.9449" vectornator:layerName="Kurve 11"/>
<path d="M377.908 41.8961L359.726 41.8961L349.46 28.1285L377.908 28.1285" fill="none" opacity="1" stroke="#330d67" stroke-linecap="butt" stroke-linejoin="round" stroke-width="13.9449" vectornator:layerName="Kurve 12"/>
<path d="M359.726 41.8961L349.46 69.1523L354.12 176.008L376.584 226.08L322.952 183.073L299.692 63.0033L349.46 28.1285" fill="none" opacity="1" stroke="#330d67" stroke-linecap="butt" stroke-linejoin="round" stroke-width="13.9449" vectornator:layerName="Kurve 13"/>
<path d="M574.918 179.639C574.482 139.195 511.254 139.981 511.254 139.981C511.254 139.981 571.684 140.932 571.662 101.535C571.629 44.7777 496.644 58.3919 496.644 58.3919L497.902 219.039C497.902 219.039 575.485 232.256 574.918 179.639Z" fill="none" opacity="1" stroke="#161543" stroke-linecap="butt" stroke-linejoin="round" stroke-width="37.7215" vectornator:layerName="Kurve 1"/>
<path d="M647.615 58.4532L647.615 219.025" fill="none" opacity="1" stroke="#161543" stroke-linecap="round" stroke-linejoin="round" stroke-width="37.7215" vectornator:layerName="Kurve 2"/>
<path d="M722.676 218.26L722.525 57.6804L822.322 220.563L823.062 56.9146" fill="none" opacity="1" stroke="#161543" stroke-linecap="round" stroke-linejoin="round" stroke-width="37.7215" vectornator:layerName="Kurve 3"/>
<path d="M177.888 219.156L176.938 60.2382C176.938 60.2382 243.034 47.8648 260.852 85.999C268.6 102.581 255.046 142.248 180.396 137.361C165.745 136.402 247.227 208.571 277.832 218.773" fill="none" opacity="1" stroke="#161543" stroke-linecap="round" stroke-linejoin="round" stroke-width="37.7215" vectornator:layerName="Kurve 4"/>
</g>
</svg>
