<?xml version="1.0" encoding="UTF-8" standalone="no"?>
<!DOCTYPE svg PUBLIC "-//W3C//DTD SVG 1.1//EN" "http://www.w3.org/Graphics/SVG/1.1/DTD/svg11.dtd">
<!-- Created with Vectornator (http://vectornator.io/) -->
<svg height="100%" stroke-miterlimit="10" style="fill-rule:nonzero;clip-rule:evenodd;stroke-linecap:round;stroke-linejoin:round;" version="1.1" viewBox="0 0 1000 323.294" width="100%" xml:space="preserve" xmlns="http://www.w3.org/2000/svg" xmlns:vectornator="http://vectornator.io" xmlns:xlink="http://www.w3.org/1999/xlink">
<defs/>
<g id="Schrift-kopieren" vectornator:layerName="Schrift kopieren">
<g fill="#4d4c4c" opacity="1" stroke="none">
<path d="M57.3514 289.099L61.6682 289.099L61.6682 275.405L69.6783 275.405C69.7263 275.405 69.7703 275.405 69.8102 275.405C69.8502 275.405 69.8942 275.405 69.9421 275.405L77.3527 289.099L82.413 289.099L74.4029 274.734C76.5613 274.046 78.26 272.827 79.4991 271.076C80.7382 269.326 81.3578 267.251 81.3578 264.853L81.3578 264.805C81.3578 262.727 80.9021 260.916 79.9908 259.373C79.0794 257.83 77.7964 256.631 76.1416 255.776C74.4868 254.92 72.5482 254.493 70.3259 254.493L57.3514 254.493L57.3514 289.099ZM61.6682 271.592L61.6682 258.33L69.7503 258.33C71.9727 258.33 73.7194 258.909 74.9904 260.069C76.2615 261.228 76.897 262.839 76.897 264.901L76.897 264.949C76.897 267.075 76.2935 268.714 75.0864 269.865C73.8793 271.017 72.1645 271.592 69.9421 271.592L61.6682 271.592Z"/>
<path d="M86.7298 289.099L90.9027 289.099L90.9027 264.158L86.7298 264.158L86.7298 289.099ZM88.8163 259.937C89.5517 259.937 90.1713 259.681 90.6749 259.169C91.1785 258.658 91.4304 258.042 91.4304 257.323C91.4304 256.587 91.1785 255.968 90.6749 255.464C90.1713 254.96 89.5517 254.709 88.8163 254.709C88.0968 254.709 87.4813 254.96 86.9696 255.464C86.458 255.968 86.2022 256.587 86.2022 257.323C86.2022 258.042 86.458 258.658 86.9696 259.169C87.4813 259.681 88.0968 259.937 88.8163 259.937Z"/>
<path d="M105.772 289.579C107.626 289.579 109.285 289.263 110.748 288.632C112.211 288 113.362 287.125 114.202 286.006C115.041 284.886 115.461 283.599 115.461 282.144L115.461 282.12C115.461 280.346 114.949 278.927 113.926 277.863C112.903 276.8 111.128 275.965 108.602 275.357L104.645 274.398C103.27 274.062 102.278 273.599 101.671 273.007C101.063 272.415 100.759 271.696 100.759 270.849L100.759 270.825C100.759 270.089 100.955 269.446 101.347 268.894C101.739 268.342 102.302 267.915 103.038 267.611C103.773 267.307 104.645 267.155 105.652 267.155C107.203 267.155 108.43 267.523 109.333 268.259C110.237 268.994 110.768 269.969 110.928 271.184L110.952 271.352L114.933 271.352L114.909 271.041C114.813 269.65 114.377 268.398 113.602 267.287C112.827 266.176 111.763 265.297 110.412 264.649C109.061 264.002 107.475 263.678 105.652 263.678C103.861 263.678 102.274 263.99 100.891 264.613C99.5084 265.237 98.4292 266.1 97.6538 267.203C96.8783 268.307 96.4906 269.578 96.4906 271.017L96.4906 271.041C96.4906 272.831 97.0662 274.29 98.2174 275.417C99.3685 276.544 101.119 277.388 103.47 277.947L107.427 278.907C108.85 279.258 109.833 279.706 110.376 280.25C110.92 280.793 111.192 281.513 111.192 282.408L111.192 282.432C111.192 283.184 110.976 283.835 110.544 284.387C110.113 284.938 109.497 285.362 108.698 285.658C107.898 285.954 106.931 286.101 105.796 286.101C104.101 286.101 102.782 285.754 101.839 285.058C100.895 284.363 100.296 283.391 100.04 282.144L99.9921 281.905L95.8191 281.905L95.8431 282.12C96.019 283.607 96.5186 284.91 97.342 286.029C98.1654 287.149 99.2886 288.02 100.712 288.644C102.134 289.267 103.821 289.579 105.772 289.579Z"/>
<path d="M120.449 289.099L124.622 289.099L124.622 254.493L120.449 254.493L120.449 289.099ZM136.205 289.099L141.05 289.099L129.49 274.398L126.708 277.18L136.205 289.099ZM123.687 280.585L128.555 275.933L128.891 275.933L140.714 264.158L135.654 264.158L124.718 275.165L123.687 275.165L123.687 280.585Z"/>
<path d="M152.585 289.099L157.118 289.099L167.55 259.673L168.654 259.673L168.654 254.493L165.464 254.493L152.585 289.099ZM158.485 279.195L176.712 279.195L175.273 275.525L159.924 275.525L158.485 279.195ZM178.055 289.099L182.587 289.099L169.733 254.493L167.646 254.493L167.646 259.673L178.055 289.099Z"/>
<path d="M195.082 289.579C196.937 289.579 198.596 289.263 200.059 288.632C201.521 288 202.673 287.125 203.512 286.006C204.351 284.886 204.771 283.599 204.771 282.144L204.771 282.12C204.771 280.346 204.259 278.927 203.236 277.863C202.213 276.8 200.438 275.965 197.912 275.357L193.955 274.398C192.58 274.062 191.589 273.599 190.981 273.007C190.374 272.415 190.07 271.696 190.07 270.849L190.07 270.825C190.07 270.089 190.266 269.446 190.657 268.894C191.049 268.342 191.613 267.915 192.348 267.611C193.084 267.307 193.955 267.155 194.962 267.155C196.513 267.155 197.74 267.523 198.644 268.259C199.547 268.994 200.078 269.969 200.238 271.184L200.262 271.352L204.243 271.352L204.219 271.041C204.124 269.65 203.688 268.398 202.912 267.287C202.137 266.176 201.074 265.297 199.723 264.649C198.372 264.002 196.785 263.678 194.962 263.678C193.172 263.678 191.585 263.99 190.202 264.613C188.819 265.237 187.74 266.1 186.964 267.203C186.189 268.307 185.801 269.578 185.801 271.017L185.801 271.041C185.801 272.831 186.377 274.29 187.528 275.417C188.679 276.544 190.43 277.388 192.78 277.947L196.737 278.907C198.16 279.258 199.143 279.706 199.687 280.25C200.23 280.793 200.502 281.513 200.502 282.408L200.502 282.432C200.502 283.184 200.286 283.835 199.855 284.387C199.423 284.938 198.807 285.362 198.008 285.658C197.209 285.954 196.241 286.101 195.106 286.101C193.411 286.101 192.092 285.754 191.149 285.058C190.206 284.363 189.606 283.391 189.35 282.144L189.302 281.905L185.129 281.905L185.153 282.12C185.329 283.607 185.829 284.91 186.652 286.029C187.476 287.149 188.599 288.02 190.022 288.644C191.445 289.267 193.132 289.579 195.082 289.579Z"/>
<path d="M218.273 289.579C220.128 289.579 221.787 289.263 223.249 288.632C224.712 288 225.864 287.125 226.703 286.006C227.542 284.886 227.962 283.599 227.962 282.144L227.962 282.12C227.962 280.346 227.45 278.927 226.427 277.863C225.404 276.8 223.629 275.965 221.103 275.357L217.146 274.398C215.771 274.062 214.78 273.599 214.172 273.007C213.565 272.415 213.261 271.696 213.261 270.849L213.261 270.825C213.261 270.089 213.457 269.446 213.848 268.894C214.24 268.342 214.804 267.915 215.539 267.611C216.275 267.307 217.146 267.155 218.153 267.155C219.704 267.155 220.931 267.523 221.834 268.259C222.738 268.994 223.269 269.969 223.429 271.184L223.453 271.352L227.434 271.352L227.41 271.041C227.314 269.65 226.879 268.398 226.103 267.287C225.328 266.176 224.265 265.297 222.914 264.649C221.563 264.002 219.976 263.678 218.153 263.678C216.363 263.678 214.776 263.99 213.393 264.613C212.01 265.237 210.931 266.1 210.155 267.203C209.38 268.307 208.992 269.578 208.992 271.017L208.992 271.041C208.992 272.831 209.568 274.29 210.719 275.417C211.87 276.544 213.621 277.388 215.971 277.947L219.928 278.907C221.351 279.258 222.334 279.706 222.878 280.25C223.421 280.793 223.693 281.513 223.693 282.408L223.693 282.432C223.693 283.184 223.477 283.835 223.046 284.387C222.614 284.938 221.998 285.362 221.199 285.658C220.4 285.954 219.432 286.101 218.297 286.101C216.602 286.101 215.283 285.754 214.34 285.058C213.397 284.363 212.797 283.391 212.541 282.144L212.493 281.905L208.32 281.905L208.344 282.12C208.52 283.607 209.02 284.91 209.843 286.029C210.667 287.149 211.79 288.02 213.213 288.644C214.636 289.267 216.323 289.579 218.273 289.579Z"/>
<path d="M242.879 289.579C244.238 289.579 245.501 289.391 246.668 289.015C247.835 288.64 248.875 288.112 249.786 287.432C250.697 286.753 251.445 285.966 252.028 285.07C252.612 284.175 253.008 283.216 253.215 282.192L253.263 281.952L249.162 281.952L249.09 282.168C248.851 282.888 248.451 283.527 247.891 284.087C247.332 284.647 246.636 285.086 245.805 285.406C244.973 285.726 244.03 285.886 242.975 285.886C241.472 285.886 240.169 285.554 239.066 284.89C237.963 284.227 237.111 283.272 236.512 282.024C235.912 280.777 235.612 279.274 235.612 277.516L235.612 275.909C235.612 274.054 235.916 272.491 236.524 271.22C237.131 269.949 237.963 268.99 239.018 268.342C240.073 267.695 241.264 267.371 242.591 267.371C243.918 267.371 245.093 267.679 246.117 268.295C247.14 268.91 247.943 269.849 248.527 271.112C249.11 272.376 249.402 273.974 249.402 275.909L249.402 277.516L251.513 274.494L233.478 274.494L233.478 277.756L253.575 277.756L253.575 276.221C253.575 273.727 253.135 271.536 252.256 269.65C251.377 267.763 250.118 266.296 248.479 265.249C246.84 264.202 244.886 263.678 242.615 263.678C240.345 263.678 238.37 264.226 236.692 265.321C235.013 266.416 233.71 267.943 232.782 269.901C231.855 271.86 231.391 274.126 231.391 276.7L231.391 276.724C231.391 279.33 231.851 281.597 232.77 283.523C233.69 285.45 235.009 286.941 236.728 287.996C238.446 289.051 240.497 289.579 242.879 289.579Z"/>
<path d="M266.957 289.579C268.812 289.579 270.471 289.263 271.934 288.632C273.397 288 274.548 287.125 275.387 286.006C276.227 284.886 276.646 283.599 276.646 282.144L276.646 282.12C276.646 280.346 276.135 278.927 275.111 277.863C274.088 276.8 272.313 275.965 269.787 275.357L265.83 274.398C264.455 274.062 263.464 273.599 262.856 273.007C262.249 272.415 261.945 271.696 261.945 270.849L261.945 270.825C261.945 270.089 262.141 269.446 262.533 268.894C262.924 268.342 263.488 267.915 264.223 267.611C264.959 267.307 265.83 267.155 266.837 267.155C268.388 267.155 269.615 267.523 270.519 268.259C271.422 268.994 271.954 269.969 272.114 271.184L272.138 271.352L276.119 271.352L276.095 271.041C275.999 269.65 275.563 268.398 274.788 267.287C274.012 266.176 272.949 265.297 271.598 264.649C270.247 264.002 268.66 263.678 266.837 263.678C265.047 263.678 263.46 263.99 262.077 264.613C260.694 265.237 259.615 266.1 258.839 267.203C258.064 268.307 257.676 269.578 257.676 271.017L257.676 271.041C257.676 272.831 258.252 274.29 259.403 275.417C260.554 276.544 262.305 277.388 264.655 277.947L268.612 278.907C270.035 279.258 271.018 279.706 271.562 280.25C272.106 280.793 272.377 281.513 272.377 282.408L272.377 282.432C272.377 283.184 272.162 283.835 271.73 284.387C271.298 284.938 270.683 285.362 269.883 285.658C269.084 285.954 268.116 286.101 266.981 286.101C265.287 286.101 263.968 285.754 263.024 285.058C262.081 284.363 261.481 283.391 261.226 282.144L261.178 281.905L257.005 281.905L257.029 282.12C257.205 283.607 257.704 284.91 258.528 286.029C259.351 287.149 260.474 288.02 261.897 288.644C263.32 289.267 265.007 289.579 266.957 289.579Z"/>
<path d="M290.148 289.579C292.003 289.579 293.662 289.263 295.125 288.632C296.588 288 297.739 287.125 298.578 286.006C299.417 284.886 299.837 283.599 299.837 282.144L299.837 282.12C299.837 280.346 299.326 278.927 298.302 277.863C297.279 276.8 295.504 275.965 292.978 275.357L289.021 274.398C287.646 274.062 286.655 273.599 286.047 273.007C285.44 272.415 285.136 271.696 285.136 270.849L285.136 270.825C285.136 270.089 285.332 269.446 285.724 268.894C286.115 268.342 286.679 267.915 287.414 267.611C288.15 267.307 289.021 267.155 290.028 267.155C291.579 267.155 292.806 267.523 293.71 268.259C294.613 268.994 295.145 269.969 295.304 271.184L295.328 271.352L299.31 271.352L299.286 271.041C299.19 269.65 298.754 268.398 297.979 267.287C297.203 266.176 296.14 265.297 294.789 264.649C293.438 264.002 291.851 263.678 290.028 263.678C288.238 263.678 286.651 263.99 285.268 264.613C283.885 265.237 282.806 266.1 282.03 267.203C281.255 268.307 280.867 269.578 280.867 271.017L280.867 271.041C280.867 272.831 281.443 274.29 282.594 275.417C283.745 276.544 285.496 277.388 287.846 277.947L291.803 278.907C293.226 279.258 294.209 279.706 294.753 280.25C295.297 280.793 295.568 281.513 295.568 282.408L295.568 282.432C295.568 283.184 295.352 283.835 294.921 284.387C294.489 284.938 293.874 285.362 293.074 285.658C292.275 285.954 291.307 286.101 290.172 286.101C288.478 286.101 287.158 285.754 286.215 285.058C285.272 284.363 284.672 283.391 284.416 282.144L284.369 281.905L280.196 281.905L280.22 282.12C280.395 283.607 280.895 284.91 281.718 286.029C282.542 287.149 283.665 288.02 285.088 288.644C286.511 289.267 288.198 289.579 290.148 289.579Z"/>
<path d="M304.49 289.099L308.663 289.099L308.663 273.463C308.663 272.296 308.91 271.256 309.406 270.345C309.902 269.434 310.577 268.71 311.433 268.175C312.288 267.639 313.267 267.371 314.37 267.371C315.921 267.371 317.16 267.827 318.088 268.738C319.015 269.65 319.479 270.865 319.479 272.384L319.479 289.099L323.652 289.099L323.652 273.247C323.652 272.112 323.891 271.1 324.371 270.213C324.851 269.326 325.514 268.63 326.362 268.127C327.209 267.623 328.184 267.371 329.288 267.371C330.934 267.371 332.209 267.855 333.113 268.822C334.016 269.789 334.468 271.128 334.468 272.839L334.468 289.099L338.641 289.099L338.641 271.88C338.641 270.217 338.305 268.774 337.633 267.551C336.962 266.328 336.019 265.377 334.803 264.697C333.588 264.018 332.157 263.678 330.511 263.678C329.343 263.678 328.252 263.87 327.237 264.253C326.222 264.637 325.326 265.185 324.551 265.896C323.776 266.608 323.156 267.467 322.692 268.474L322.596 268.474C322.245 267.451 321.733 266.584 321.062 265.872C320.39 265.161 319.595 264.617 318.675 264.242C317.756 263.866 316.729 263.678 315.594 263.678C313.995 263.678 312.596 264.058 311.397 264.817C310.198 265.577 309.318 266.572 308.759 267.803L308.663 267.803L308.663 264.158L304.49 264.158L304.49 289.099Z"/>
<path d="M354.541 289.579C355.9 289.579 357.163 289.391 358.33 289.015C359.497 288.64 360.537 288.112 361.448 287.432C362.359 286.753 363.107 285.966 363.69 285.07C364.274 284.175 364.67 283.216 364.877 282.192L364.925 281.952L360.824 281.952L360.752 282.168C360.513 282.888 360.113 283.527 359.553 284.087C358.994 284.647 358.298 285.086 357.467 285.406C356.635 285.726 355.692 285.886 354.637 285.886C353.134 285.886 351.831 285.554 350.728 284.89C349.625 284.227 348.773 283.272 348.174 282.024C347.574 280.777 347.274 279.274 347.274 277.516L347.274 275.909C347.274 274.054 347.578 272.491 348.186 271.22C348.793 269.949 349.625 268.99 350.68 268.342C351.735 267.695 352.926 267.371 354.253 267.371C355.58 267.371 356.755 267.679 357.779 268.295C358.802 268.91 359.605 269.849 360.189 271.112C360.772 272.376 361.064 273.974 361.064 275.909L361.064 277.516L363.175 274.494L345.14 274.494L345.14 277.756L365.237 277.756L365.237 276.221C365.237 273.727 364.797 271.536 363.918 269.65C363.039 267.763 361.78 266.296 360.141 265.249C358.502 264.202 356.547 263.678 354.277 263.678C352.007 263.678 350.032 264.226 348.354 265.321C346.675 266.416 345.372 267.943 344.444 269.901C343.517 271.86 343.053 274.126 343.053 276.7L343.053 276.724C343.053 279.33 343.513 281.597 344.432 283.523C345.352 285.45 346.671 286.941 348.389 287.996C350.108 289.051 352.159 289.579 354.541 289.579Z"/>
<path d="M369.77 289.099L373.943 289.099L373.943 274.422C373.943 272.999 374.21 271.76 374.746 270.705C375.282 269.65 376.037 268.83 377.012 268.247C377.988 267.663 379.131 267.371 380.442 267.371C382.361 267.371 383.795 267.911 384.747 268.99C385.698 270.069 386.174 271.624 386.174 273.655L386.174 289.099L390.347 289.099L390.347 272.911C390.347 270.065 389.591 267.815 388.08 266.16C386.569 264.505 384.447 263.678 381.713 263.678C379.826 263.678 378.244 264.058 376.964 264.817C375.685 265.577 374.71 266.54 374.039 267.707L373.943 267.707L373.943 264.158L369.77 264.158L369.77 289.099Z"/>
<path d="M404.089 289.579C404.504 289.579 404.916 289.559 405.324 289.519C405.731 289.479 406.063 289.443 406.319 289.411L406.319 286.029C406.143 286.045 405.939 286.065 405.707 286.089C405.476 286.113 405.232 286.125 404.976 286.125C403.857 286.125 403.009 285.89 402.434 285.418C401.858 284.946 401.57 284.047 401.57 282.72L401.57 267.611L406.319 267.611L406.319 264.158L401.57 264.158L401.57 257.419L397.254 257.419L397.254 264.158L393.608 264.158L393.608 267.611L397.254 267.611L397.254 282.744C397.254 285.126 397.821 286.861 398.956 287.948C400.091 289.035 401.802 289.579 404.089 289.579Z"/>
<path d="M430.037 289.579C431.94 289.579 433.527 289.199 434.798 288.44C436.069 287.68 437.04 286.717 437.712 285.55L437.808 285.55L437.808 289.099L441.981 289.099L441.981 264.158L437.808 264.158L437.808 278.835C437.808 280.242 437.54 281.477 437.004 282.54C436.469 283.603 435.713 284.427 434.738 285.01C433.763 285.594 432.62 285.886 431.309 285.886C429.39 285.886 427.955 285.346 427.004 284.267C426.052 283.188 425.577 281.633 425.577 279.602L425.577 264.158L421.404 264.158L421.404 280.346C421.404 282.232 421.744 283.867 422.423 285.25C423.103 286.633 424.086 287.7 425.373 288.452C426.66 289.203 428.215 289.579 430.037 289.579Z"/>
<path d="M456.586 289.579C458.441 289.579 460.099 289.263 461.562 288.632C463.025 288 464.176 287.125 465.016 286.006C465.855 284.886 466.275 283.599 466.275 282.144L466.275 282.12C466.275 280.346 465.763 278.927 464.74 277.863C463.717 276.8 461.942 275.965 459.416 275.357L455.459 274.398C454.084 274.062 453.093 273.599 452.485 273.007C451.877 272.415 451.574 271.696 451.574 270.849L451.574 270.825C451.574 270.089 451.769 269.446 452.161 268.894C452.553 268.342 453.116 267.915 453.852 267.611C454.587 267.307 455.459 267.155 456.466 267.155C458.017 267.155 459.244 267.523 460.147 268.259C461.051 268.994 461.582 269.969 461.742 271.184L461.766 271.352L465.747 271.352L465.723 271.041C465.627 269.65 465.192 268.398 464.416 267.287C463.641 266.176 462.578 265.297 461.227 264.649C459.876 264.002 458.289 263.678 456.466 263.678C454.675 263.678 453.089 263.99 451.706 264.613C450.323 265.237 449.243 266.1 448.468 267.203C447.692 268.307 447.305 269.578 447.305 271.017L447.305 271.041C447.305 272.831 447.88 274.29 449.032 275.417C450.183 276.544 451.933 277.388 454.284 277.947L458.241 278.907C459.664 279.258 460.647 279.706 461.191 280.25C461.734 280.793 462.006 281.513 462.006 282.408L462.006 282.432C462.006 283.184 461.79 283.835 461.358 284.387C460.927 284.938 460.311 285.362 459.512 285.658C458.712 285.954 457.745 286.101 456.61 286.101C454.915 286.101 453.596 285.754 452.653 285.058C451.71 284.363 451.11 283.391 450.854 282.144L450.806 281.905L446.633 281.905L446.657 282.12C446.833 283.607 447.333 284.91 448.156 286.029C448.98 287.149 450.103 288.02 451.526 288.644C452.949 289.267 454.635 289.579 456.586 289.579Z"/>
<path d="M471.191 289.099L475.364 289.099L475.364 264.158L471.191 264.158L471.191 289.099ZM473.278 259.937C474.013 259.937 474.633 259.681 475.136 259.169C475.64 258.658 475.892 258.042 475.892 257.323C475.892 256.587 475.64 255.968 475.136 255.464C474.633 254.96 474.013 254.709 473.278 254.709C472.558 254.709 471.943 254.96 471.431 255.464C470.919 255.968 470.664 256.587 470.664 257.323C470.664 258.042 470.919 258.658 471.431 259.169C471.943 259.681 472.558 259.937 473.278 259.937Z"/>
<path d="M481.384 289.099L485.557 289.099L485.557 274.422C485.557 272.999 485.824 271.76 486.36 270.705C486.896 269.65 487.651 268.83 488.626 268.247C489.602 267.663 490.745 267.371 492.056 267.371C493.974 267.371 495.409 267.911 496.361 268.99C497.312 270.069 497.788 271.624 497.788 273.655L497.788 289.099L501.961 289.099L501.961 272.911C501.961 270.065 501.205 267.815 499.694 266.16C498.183 264.505 496.061 263.678 493.327 263.678C491.44 263.678 489.857 264.058 488.578 264.817C487.299 265.577 486.324 266.54 485.653 267.707L485.557 267.707L485.557 264.158L481.384 264.158L481.384 289.099Z"/>
<path d="M518.149 297.973C520.403 297.973 522.354 297.577 524 296.786C525.647 295.994 526.918 294.883 527.814 293.452C528.709 292.021 529.157 290.338 529.157 288.404L529.157 264.158L524.984 264.158L524.984 268.378L524.888 268.378C524.376 267.451 523.733 266.636 522.957 265.932C522.182 265.229 521.298 264.677 520.307 264.277C519.316 263.878 518.229 263.678 517.046 263.678C514.935 263.678 513.08 264.206 511.482 265.261C509.883 266.316 508.632 267.799 507.728 269.709C506.825 271.62 506.373 273.87 506.373 276.461L506.373 276.485C506.373 279.075 506.817 281.333 507.704 283.26C508.592 285.186 509.831 286.681 511.422 287.744C513.012 288.807 514.855 289.339 516.95 289.339C518.149 289.339 519.256 289.151 520.271 288.775C521.286 288.4 522.186 287.876 522.969 287.205C523.753 286.533 524.392 285.734 524.888 284.806L524.984 284.806L524.984 287.996C524.984 289.931 524.384 291.461 523.185 292.589C521.986 293.716 520.291 294.279 518.101 294.279C516.406 294.279 514.987 294.02 513.844 293.5C512.701 292.98 511.929 292.273 511.53 291.378L511.434 291.162L507.237 291.162L507.285 291.378C507.556 292.609 508.16 293.724 509.095 294.723C510.031 295.722 511.262 296.514 512.789 297.097C514.316 297.681 516.102 297.973 518.149 297.973ZM517.861 285.646C516.39 285.646 515.111 285.274 514.024 284.531C512.937 283.787 512.101 282.732 511.518 281.365C510.934 279.998 510.642 278.371 510.642 276.485L510.642 276.461C510.642 274.606 510.934 272.999 511.518 271.64C512.101 270.281 512.937 269.23 514.024 268.486C515.111 267.743 516.39 267.371 517.861 267.371C519.268 267.371 520.507 267.747 521.578 268.498C522.649 269.25 523.485 270.305 524.084 271.664C524.684 273.023 524.984 274.622 524.984 276.461L524.984 276.485C524.984 278.323 524.684 279.93 524.084 281.305C523.485 282.68 522.653 283.747 521.59 284.507C520.527 285.266 519.284 285.646 517.861 285.646Z"/>
<path d="M548.103 289.099L559.015 289.099C561.477 289.099 563.579 288.712 565.322 287.936C567.065 287.161 568.404 286.049 569.339 284.603C570.274 283.156 570.742 281.417 570.742 279.386L570.742 279.338C570.742 277.804 570.422 276.433 569.783 275.225C569.143 274.018 568.224 273.031 567.025 272.264C565.826 271.496 564.395 271.017 562.732 270.825L562.732 270.729C563.931 270.553 565.002 270.093 565.946 269.35C566.889 268.606 567.632 267.691 568.176 266.604C568.72 265.517 568.991 264.373 568.991 263.174L568.991 263.126C568.991 261.4 568.576 259.889 567.744 258.594C566.913 257.299 565.754 256.291 564.267 255.572C562.78 254.852 561.045 254.493 559.063 254.493L548.103 254.493L548.103 258.306L558.079 258.306C560.174 258.306 561.789 258.758 562.924 259.661C564.059 260.564 564.627 261.871 564.627 263.582L564.627 263.63C564.627 265.501 563.951 266.932 562.6 267.923C561.249 268.914 559.294 269.41 556.736 269.41L548.103 269.41L548.103 273.127L557.959 273.127C559.798 273.127 561.337 273.351 562.576 273.798C563.815 274.246 564.746 274.918 565.37 275.813C565.994 276.708 566.305 277.828 566.305 279.171L566.305 279.218C566.305 281.201 565.63 282.708 564.279 283.739C562.928 284.77 560.957 285.286 558.367 285.286L548.103 285.286L548.103 289.099ZM545.944 289.099L550.261 289.099L550.261 254.493L545.944 254.493L545.944 289.099Z"/>
<path d="M582.613 289.579C583.732 289.579 584.792 289.391 585.791 289.015C586.79 288.64 587.69 288.112 588.489 287.432C589.288 286.753 589.928 285.958 590.408 285.046L590.504 285.046L590.504 289.099L594.676 289.099L594.676 271.856C594.676 270.193 594.285 268.75 593.501 267.527C592.718 266.304 591.611 265.357 590.18 264.685C588.749 264.014 587.05 263.678 585.083 263.678C583.133 263.678 581.446 264.01 580.023 264.673C578.6 265.337 577.485 266.228 576.678 267.347C575.87 268.466 575.403 269.713 575.275 271.088L575.251 271.352L579.28 271.352L579.328 271.136C579.568 270.017 580.179 269.11 581.162 268.414C582.146 267.719 583.437 267.371 585.036 267.371C586.778 267.371 588.125 267.807 589.077 268.678C590.028 269.55 590.504 270.745 590.504 272.264L590.504 279.626C590.504 280.825 590.196 281.905 589.58 282.864C588.965 283.823 588.133 284.579 587.086 285.13C586.039 285.682 584.86 285.958 583.549 285.958C582.046 285.958 580.843 285.606 579.939 284.902C579.036 284.199 578.584 283.248 578.584 282.048L578.584 282C578.584 280.833 579.044 279.898 579.963 279.195C580.883 278.491 582.174 278.091 583.836 277.995L592.59 277.468L592.59 274.23L583.357 274.758C580.495 274.918 578.273 275.633 576.69 276.904C575.107 278.175 574.315 279.874 574.315 282L574.315 282.048C574.315 283.551 574.663 284.87 575.359 286.006C576.054 287.141 577.025 288.02 578.273 288.644C579.52 289.267 580.967 289.579 582.613 289.579Z"/>
<path d="M602.711 297.493C604.213 297.493 605.485 297.253 606.524 296.774C607.563 296.294 608.45 295.55 609.186 294.543C609.921 293.536 610.585 292.241 611.176 290.658L620.913 264.158L616.524 264.158L609.306 285.886L610.193 284.926L608.946 284.926L609.833 285.886L602.639 264.158L598.178 264.158L607.435 289.123L606.931 290.538C606.436 291.945 605.792 292.88 605.001 293.344C604.209 293.808 603.15 294.04 601.823 294.04C601.567 294.04 601.324 294.024 601.092 293.992C600.86 293.96 600.656 293.928 600.48 293.896L600.48 297.301C600.752 297.349 601.092 297.393 601.499 297.433C601.907 297.473 602.311 297.493 602.711 297.493Z"/>
<path d="M633.84 289.579C635.199 289.579 636.462 289.391 637.629 289.015C638.796 288.64 639.835 288.112 640.747 287.432C641.658 286.753 642.405 285.966 642.989 285.07C643.573 284.175 643.968 283.216 644.176 282.192L644.224 281.952L640.123 281.952L640.051 282.168C639.811 282.888 639.412 283.527 638.852 284.087C638.292 284.647 637.597 285.086 636.766 285.406C635.934 285.726 634.991 285.886 633.936 285.886C632.433 285.886 631.13 285.554 630.026 284.89C628.923 284.227 628.072 283.272 627.472 282.024C626.873 280.777 626.573 279.274 626.573 277.516L626.573 275.909C626.573 274.054 626.877 272.491 627.484 271.22C628.092 269.949 628.923 268.99 629.978 268.342C631.034 267.695 632.225 267.371 633.552 267.371C634.879 267.371 636.054 267.679 637.077 268.295C638.101 268.91 638.904 269.849 639.488 271.112C640.071 272.376 640.363 273.974 640.363 275.909L640.363 277.516L642.473 274.494L624.439 274.494L624.439 277.756L644.536 277.756L644.536 276.221C644.536 273.727 644.096 271.536 643.217 269.65C642.337 267.763 641.078 266.296 639.44 265.249C637.801 264.202 635.846 263.678 633.576 263.678C631.306 263.678 629.331 264.226 627.652 265.321C625.973 266.416 624.67 267.943 623.743 269.901C622.816 271.86 622.352 274.126 622.352 276.7L622.352 276.724C622.352 279.33 622.812 281.597 623.731 283.523C624.65 285.45 625.969 286.941 627.688 287.996C629.407 289.051 631.457 289.579 633.84 289.579Z"/>
<path d="M657.918 289.579C659.773 289.579 661.431 289.263 662.894 288.632C664.357 288 665.508 287.125 666.348 286.006C667.187 284.886 667.607 283.599 667.607 282.144L667.607 282.12C667.607 280.346 667.095 278.927 666.072 277.863C665.049 276.8 663.274 275.965 660.748 275.357L656.791 274.398C655.416 274.062 654.425 273.599 653.817 273.007C653.209 272.415 652.906 271.696 652.906 270.849L652.906 270.825C652.906 270.089 653.102 269.446 653.493 268.894C653.885 268.342 654.449 267.915 655.184 267.611C655.919 267.307 656.791 267.155 657.798 267.155C659.349 267.155 660.576 267.523 661.479 268.259C662.383 268.994 662.914 269.969 663.074 271.184L663.098 271.352L667.079 271.352L667.055 271.041C666.959 269.65 666.524 268.398 665.748 267.287C664.973 266.176 663.91 265.297 662.559 264.649C661.208 264.002 659.621 263.678 657.798 263.678C656.007 263.678 654.421 263.99 653.038 264.613C651.655 265.237 650.575 266.1 649.8 267.203C649.024 268.307 648.637 269.578 648.637 271.017L648.637 271.041C648.637 272.831 649.212 274.29 650.364 275.417C651.515 276.544 653.265 277.388 655.616 277.947L659.573 278.907C660.996 279.258 661.979 279.706 662.523 280.25C663.066 280.793 663.338 281.513 663.338 282.408L663.338 282.432C663.338 283.184 663.122 283.835 662.69 284.387C662.259 284.938 661.643 285.362 660.844 285.658C660.044 285.954 659.077 286.101 657.942 286.101C656.247 286.101 654.928 285.754 653.985 285.058C653.042 284.363 652.442 283.391 652.186 282.144L652.138 281.905L647.965 281.905L647.989 282.12C648.165 283.607 648.665 284.91 649.488 286.029C650.312 287.149 651.435 288.02 652.858 288.644C654.281 289.267 655.967 289.579 657.918 289.579Z"/>
<path d="M672.523 289.099L676.696 289.099L676.696 264.158L672.523 264.158L672.523 289.099ZM674.61 259.937C675.345 259.937 675.965 259.681 676.468 259.169C676.972 258.658 677.224 258.042 677.224 257.323C677.224 256.587 676.972 255.968 676.468 255.464C675.965 254.96 675.345 254.709 674.61 254.709C673.89 254.709 673.275 254.96 672.763 255.464C672.251 255.968 671.996 256.587 671.996 257.323C671.996 258.042 672.251 258.658 672.763 259.169C673.275 259.681 673.89 259.937 674.61 259.937Z"/>
<path d="M690.006 289.579C691.126 289.579 692.185 289.391 693.184 289.015C694.183 288.64 695.083 288.112 695.882 287.432C696.681 286.753 697.321 285.958 697.801 285.046L697.897 285.046L697.897 289.099L702.07 289.099L702.07 271.856C702.07 270.193 701.678 268.75 700.894 267.527C700.111 266.304 699.004 265.357 697.573 264.685C696.142 264.014 694.443 263.678 692.477 263.678C690.526 263.678 688.839 264.01 687.416 264.673C685.993 265.337 684.878 266.228 684.071 267.347C683.263 268.466 682.796 269.713 682.668 271.088L682.644 271.352L686.673 271.352L686.721 271.136C686.961 270.017 687.572 269.11 688.555 268.414C689.539 267.719 690.83 267.371 692.429 267.371C694.171 267.371 695.518 267.807 696.47 268.678C697.421 269.55 697.897 270.745 697.897 272.264L697.897 279.626C697.897 280.825 697.589 281.905 696.973 282.864C696.358 283.823 695.526 284.579 694.479 285.13C693.432 285.682 692.253 285.958 690.942 285.958C689.439 285.958 688.236 285.606 687.332 284.902C686.429 284.199 685.977 283.248 685.977 282.048L685.977 282C685.977 280.833 686.437 279.898 687.356 279.195C688.276 278.491 689.567 278.091 691.229 277.995L699.983 277.468L699.983 274.23L690.75 274.758C687.888 274.918 685.666 275.633 684.083 276.904C682.5 278.175 681.708 279.874 681.708 282L681.708 282.048C681.708 283.551 682.056 284.87 682.752 286.006C683.447 287.141 684.418 288.02 685.666 288.644C686.913 289.267 688.36 289.579 690.006 289.579Z"/>
<path d="M707.705 289.099L711.878 289.099L711.878 274.422C711.878 272.999 712.146 271.76 712.682 270.705C713.217 269.65 713.973 268.83 714.948 268.247C715.923 267.663 717.066 267.371 718.378 267.371C720.296 267.371 721.731 267.911 722.682 268.99C723.634 270.069 724.109 271.624 724.109 273.655L724.109 289.099L728.282 289.099L728.282 272.911C728.282 270.065 727.527 267.815 726.016 266.16C724.505 264.505 722.383 263.678 719.649 263.678C717.762 263.678 716.179 264.058 714.9 264.817C713.621 265.577 712.646 266.54 711.974 267.707L711.878 267.707L711.878 264.158L707.705 264.158L707.705 289.099Z"/>
<path d="M744.974 289.099L749.243 289.099L749.243 261.783L751.161 261.783L745.693 256.507L768.405 289.099L772.602 289.099L772.602 254.493L768.333 254.493L768.333 281.809L766.414 281.809L771.882 287.085L749.171 254.493L744.974 254.493L744.974 289.099Z"/>
<path d="M789.269 289.579C790.628 289.579 791.891 289.391 793.059 289.015C794.226 288.64 795.265 288.112 796.176 287.432C797.088 286.753 797.835 285.966 798.419 285.07C799.002 284.175 799.398 283.216 799.606 282.192L799.654 281.952L795.553 281.952L795.481 282.168C795.241 282.888 794.841 283.527 794.282 284.087C793.722 284.647 793.027 285.086 792.195 285.406C791.364 285.726 790.421 285.886 789.365 285.886C787.862 285.886 786.559 285.554 785.456 284.89C784.353 284.227 783.502 283.272 782.902 282.024C782.303 280.777 782.003 279.274 782.003 277.516L782.003 275.909C782.003 274.054 782.307 272.491 782.914 271.22C783.522 269.949 784.353 268.99 785.408 268.342C786.463 267.695 787.655 267.371 788.982 267.371C790.309 267.371 791.484 267.679 792.507 268.295C793.53 268.91 794.334 269.849 794.917 271.112C795.501 272.376 795.793 273.974 795.793 275.909L795.793 277.516L797.903 274.494L779.868 274.494L779.868 277.756L799.966 277.756L799.966 276.221C799.966 273.727 799.526 271.536 798.647 269.65C797.767 267.763 796.508 266.296 794.869 265.249C793.231 264.202 791.276 263.678 789.006 263.678C786.735 263.678 784.761 264.226 783.082 265.321C781.403 266.416 780.1 267.943 779.173 269.901C778.246 271.86 777.782 274.126 777.782 276.7L777.782 276.724C777.782 279.33 778.242 281.597 779.161 283.523C780.08 285.45 781.399 286.941 783.118 287.996C784.837 289.051 786.887 289.579 789.269 289.579Z"/>
<path d="M812.604 289.579C813.02 289.579 813.432 289.559 813.839 289.519C814.247 289.479 814.579 289.443 814.835 289.411L814.835 286.029C814.659 286.045 814.455 286.065 814.223 286.089C813.991 286.113 813.747 286.125 813.492 286.125C812.372 286.125 811.525 285.89 810.949 285.418C810.374 284.946 810.086 284.047 810.086 282.72L810.086 267.611L814.835 267.611L814.835 264.158L810.086 264.158L810.086 257.419L805.769 257.419L805.769 264.158L802.124 264.158L802.124 267.611L805.769 267.611L805.769 282.744C805.769 285.126 806.337 286.861 807.472 287.948C808.607 289.035 810.318 289.579 812.604 289.579Z"/>
<path d="M824.571 289.099L828.816 289.099L834.428 269.793L834.524 269.793L840.16 289.099L844.405 289.099L851.36 264.158L847.235 264.158L842.246 284.447L842.151 284.447L836.491 264.158L832.462 264.158L826.826 284.447L826.73 284.447L821.742 264.158L817.593 264.158L824.571 289.099Z"/>
<path d="M865.437 289.579C867.74 289.579 869.754 289.051 871.481 287.996C873.208 286.941 874.555 285.446 875.522 283.511C876.489 281.577 876.973 279.282 876.973 276.628L876.973 276.58C876.973 273.926 876.489 271.636 875.522 269.709C874.555 267.783 873.204 266.296 871.469 265.249C869.734 264.202 867.716 263.678 865.413 263.678C863.127 263.678 861.117 264.202 859.382 265.249C857.647 266.296 856.296 267.783 855.329 269.709C854.362 271.636 853.878 273.926 853.878 276.58L853.878 276.628C853.878 279.266 854.362 281.557 855.329 283.499C856.296 285.442 857.647 286.941 859.382 287.996C861.117 289.051 863.135 289.579 865.437 289.579ZM865.461 285.886C863.99 285.886 862.707 285.522 861.612 284.794C860.517 284.067 859.666 283.012 859.058 281.629C858.451 280.246 858.147 278.579 858.147 276.628L858.147 276.58C858.147 274.63 858.451 272.971 859.058 271.604C859.666 270.237 860.517 269.19 861.612 268.462C862.707 267.735 863.975 267.371 865.413 267.371C866.884 267.371 868.167 267.731 869.263 268.45C870.358 269.17 871.205 270.217 871.805 271.592C872.404 272.967 872.704 274.63 872.704 276.58L872.704 276.628C872.704 278.579 872.404 280.246 871.805 281.629C871.205 283.012 870.366 284.067 869.287 284.794C868.207 285.522 866.932 285.886 865.461 285.886Z"/>
<path d="M881.506 289.099L885.679 289.099L885.679 273.703C885.679 272.439 885.898 271.356 886.338 270.453C886.778 269.55 887.401 268.858 888.209 268.378C889.016 267.899 889.955 267.659 891.027 267.659C891.538 267.659 891.998 267.683 892.406 267.731C892.813 267.779 893.097 267.835 893.257 267.899L893.257 263.846C893.097 263.814 892.869 263.778 892.573 263.738C892.278 263.698 891.946 263.678 891.578 263.678C890.171 263.678 888.956 264.102 887.933 264.949C886.91 265.796 886.19 266.94 885.774 268.378L885.679 268.378L885.679 264.158L881.506 264.158L881.506 289.099Z"/>
<path d="M897.31 289.099L901.483 289.099L901.483 254.493L897.31 254.493L897.31 289.099ZM913.066 289.099L917.911 289.099L906.351 274.398L903.569 277.18L913.066 289.099ZM900.548 280.585L905.416 275.933L905.752 275.933L917.575 264.158L912.515 264.158L901.579 275.165L900.548 275.165L900.548 280.585Z"/>
<path d="M929.039 289.579C930.893 289.579 932.552 289.263 934.015 288.632C935.478 288 936.629 287.125 937.468 286.006C938.308 284.886 938.728 283.599 938.728 282.144L938.728 282.12C938.728 280.346 938.216 278.927 937.193 277.863C936.169 276.8 934.395 275.965 931.869 275.357L927.912 274.398C926.537 274.062 925.545 273.599 924.938 273.007C924.33 272.415 924.026 271.696 924.026 270.849L924.026 270.825C924.026 270.089 924.222 269.446 924.614 268.894C925.006 268.342 925.569 267.915 926.305 267.611C927.04 267.307 927.912 267.155 928.919 267.155C930.47 267.155 931.697 267.523 932.6 268.259C933.503 268.994 934.035 269.969 934.195 271.184L934.219 271.352L938.2 271.352L938.176 271.041C938.08 269.65 937.644 268.398 936.869 267.287C936.093 266.176 935.03 265.297 933.679 264.649C932.328 264.002 930.741 263.678 928.919 263.678C927.128 263.678 925.541 263.99 924.158 264.613C922.775 265.237 921.696 266.1 920.921 267.203C920.145 268.307 919.757 269.578 919.757 271.017L919.757 271.041C919.757 272.831 920.333 274.29 921.484 275.417C922.635 276.544 924.386 277.388 926.736 277.947L930.693 278.907C932.116 279.258 933.1 279.706 933.643 280.25C934.187 280.793 934.459 281.513 934.459 282.408L934.459 282.432C934.459 283.184 934.243 283.835 933.811 284.387C933.379 284.938 932.764 285.362 931.965 285.658C931.165 285.954 930.198 286.101 929.063 286.101C927.368 286.101 926.049 285.754 925.106 285.058C924.162 284.363 923.563 283.391 923.307 282.144L923.259 281.905L919.086 281.905L919.11 282.12C919.286 283.607 919.785 284.91 920.609 286.029C921.432 287.149 922.555 288.02 923.978 288.644C925.401 289.267 927.088 289.579 929.039 289.579Z"/>
</g>
</g>
<g id="Ebene-4" vectornator:layerName="Ebene 4">
<path d="M303.051 67.8358L355.967 27.9854L406.031 27.9854L456.836 67.1352C456.836 67.1352 433.576 186.8 433.576 186.8L379.944 227.395L324.231 185.354C324.231 185.354 302.729 72.3895 303.051 65.9394" fill="#ff0043" fill-rule="nonzero" opacity="1" stroke="none" vectornator:layerName="Kurve 2"/>
</g>
<g id="Ebene-2" vectornator:layerName="Ebene 2">
<path d="M356.306 72.7194L405.917 174.86L435.485 68.3933L399.231 45.0831L356.306 72.7194Z" fill="#e8b3dc" fill-rule="nonzero" opacity="1" stroke="none" vectornator:layerName="Kurve 2"/>
</g>
<g id="Ebene-2--" vectornator:layerName="Ebene 2 -">
<g opacity="1" vectornator:layerName="Gruppieren 4"/>
<g opacity="1" vectornator:layerName="Gruppieren 3">
<g opacity="1" vectornator:layerName="Gruppieren 1">
<g opacity="1" vectornator:layerName="Gruppieren 1">
<g opacity="1" vectornator:layerName="Gruppieren 1">
<path d="M379.942 70.7832L406.617 70.4677L458.157 64.4344" fill="none" opacity="1" stroke="#330d67" stroke-linecap="butt" stroke-linejoin="round" stroke-width="13.9449" vectornator:layerName="Kurve 8"/>
<path d="M381.263 70.7832L354.588 70.4677L303.048 64.4344" fill="none" opacity="1" stroke="#330d67" stroke-linecap="butt" stroke-linejoin="round" stroke-width="13.9449" vectornator:layerName="Kurve 9"/>
<path d="M379.942 43.2115L398.124 43.2115L408.389 29.4439L379.942 29.4439" fill="none" opacity="1" stroke="#330d67" stroke-linecap="butt" stroke-linejoin="round" stroke-width="13.9449" vectornator:layerName="Kurve 10"/>
<path d="M398.124 43.2115L408.389 70.4677L403.73 177.323L381.265 227.395L434.898 184.388L458.157 64.3187L408.389 29.4439" fill="none" opacity="1" stroke="#330d67" stroke-linecap="butt" stroke-linejoin="round" stroke-width="13.9449" vectornator:layerName="Kurve 11"/>
<path d="M381.263 43.2115L363.081 43.2115L352.816 29.4439L381.263 29.4439" fill="none" opacity="1" stroke="#330d67" stroke-linecap="butt" stroke-linejoin="round" stroke-width="13.9449" vectornator:layerName="Kurve 12"/>
<path d="M363.081 43.2115L352.816 70.4677L357.475 177.323L379.94 227.395L326.307 184.388L303.048 64.3187L352.816 29.4439" fill="none" opacity="1" stroke="#330d67" stroke-linecap="butt" stroke-linejoin="round" stroke-width="13.9449" vectornator:layerName="Kurve 13"/>
</g>
</g>
</g>
</g>
</g>
<g id="Ebene-1-kopieren" vectornator:layerName="Ebene 1 kopieren">
<path d="M578.274 180.955C577.838 140.51 514.609 141.297 514.609 141.297C514.609 141.297 575.04 142.247 575.017 102.851C574.985 46.0931 500 59.7073 500 59.7073L501.258 220.355C501.258 220.355 578.84 233.572 578.274 180.955Z" fill="none" opacity="1" stroke="#161543" stroke-linecap="butt" stroke-linejoin="round" stroke-width="37.7215" vectornator:layerName="Kurve 1"/>
<path d="M650.971 59.7686L650.971 220.34" fill="none" opacity="1" stroke="#161543" stroke-linecap="round" stroke-linejoin="round" stroke-width="37.7215" vectornator:layerName="Kurve 2"/>
<path d="M726.032 219.576L725.881 58.9958L825.678 221.879L826.418 58.23" fill="none" opacity="1" stroke="#161543" stroke-linecap="round" stroke-linejoin="round" stroke-width="37.7215" vectornator:layerName="Kurve 3"/>
<path d="M181.243 220.472L180.293 61.5536C180.293 61.5536 246.39 49.1802 264.208 87.3144C271.955 103.896 258.402 143.563 183.751 138.676C169.101 137.717 250.583 209.887 281.187 220.088" fill="none" opacity="1" stroke="#161543" stroke-linecap="round" stroke-linejoin="round" stroke-width="37.7215" vectornator:layerName="Kurve 4"/>
</g>
</svg>
