<?xml version="1.0" encoding="UTF-8" standalone="no"?>
<!DOCTYPE svg PUBLIC "-//W3C//DTD SVG 1.1//EN" "http://www.w3.org/Graphics/SVG/1.1/DTD/svg11.dtd">
<!-- Created with Vectornator (http://vectornator.io/) -->
<svg height="100%" stroke-miterlimit="10" style="fill-rule:nonzero;clip-rule:evenodd;stroke-linecap:round;stroke-linejoin:round;" version="1.1" viewBox="0 0 1000 265.482" width="100%" xml:space="preserve" xmlns="http://www.w3.org/2000/svg" xmlns:vectornator="http://vectornator.io" xmlns:xlink="http://www.w3.org/1999/xlink">
<defs/>
<g id="Schrift-kopieren" vectornator:layerName="Schrift kopieren"/>
<g id="Ebene-4" vectornator:layerName="Ebene 4">
<path d="M292.556 50.5718L339.61 29.05L398.73 29.5881L446.388 51.1098C446.388 51.1098 418.233 198.505 370.98 201.224C333.578 203.376 315.71 182.951 302.545 164.118C280.718 132.896 284.94 82.7745 285.317 76.3979" fill="#ff0043" fill-rule="nonzero" opacity="1" stroke="none"/>
</g>
<g id="Ebene-2" vectornator:layerName="Ebene 2">
<path d="M340.765 66.3391L386.151 152.943L414.313 60.1264L374.337 39.9404L340.765 66.3391Z" fill="#e8b3dc" fill-rule="nonzero" opacity="1" stroke="none"/>
</g>
<g id="Ebene-2--" vectornator:layerName="Ebene 2 -">
<path d="M345.138 39.5303L376.224 39.2585" fill="none" opacity="1" stroke="#75235d" stroke-linecap="butt" stroke-linejoin="round" stroke-width="8.38399"/>
<path d="M387.805 62.9066L376.528 41.1612L386.214 28.3398" fill="none" opacity="1" stroke="#75235d" stroke-linecap="butt" stroke-linejoin="round" stroke-width="8.38399"/>
<path d="M358.361 195.134L333.637 152.796L329.681 67.2381L343.032 39.4538L334.96 27.355L386.978 27.0782L437.177 51.7621L386.586 64.5375L385.976 146.626L358.361 195.134Z" fill="none" opacity="1" stroke="#75235d" stroke-linecap="butt" stroke-linejoin="round" stroke-width="8.38399"/>
<path d="M385.976 64.5375L334.471 63.4502L290.28 48.2284L314.183 36.4844L335.393 27.391" fill="none" opacity="1" stroke="#75235d" stroke-linecap="butt" stroke-linejoin="round" stroke-width="8.38399"/>
</g>
<g id="Ebene-1-kopieren" vectornator:layerName="Ebene 1 kopieren">
<path d="M598.309 179.147C597.873 138.703 534.645 139.489 534.645 139.489C534.645 139.489 595.076 140.439 595.053 101.043C595.021 44.2854 520.035 57.8996 520.035 57.8996L521.294 218.547C521.294 218.547 598.876 231.764 598.309 179.147Z" fill="none" opacity="1" stroke="#1d1f32" stroke-linecap="butt" stroke-linejoin="round" stroke-width="37.7215"/>
<path d="M686.792 57.7403L686.792 218.312" fill="none" opacity="1" stroke="#1d1f32" stroke-linecap="round" stroke-linejoin="round" stroke-width="37.7215"/>
<path d="M773.326 218.677L773.175 58.0973L872.972 220.98L873.713 57.3315" fill="none" opacity="1" stroke="#1d1f32" stroke-linecap="round" stroke-linejoin="round" stroke-width="37.7215"/>
<path d="M118.56 217.44L117.61 58.5221C117.61 58.5221 183.706 46.1487 201.524 84.2829C209.272 100.864 195.718 140.532 121.068 135.645C106.418 134.686 187.899 206.855 218.504 217.057" fill="none" opacity="1" stroke="#1d1f32" stroke-linecap="round" stroke-linejoin="round" stroke-width="37.7215"/>
<path d="M279.649 58.68C279.649 58.68 272.523 217.731 358.372 217.726C439.199 217.721 437.754 58.1685 437.754 58.1685" fill="none" opacity="1" stroke="#1d1f32" stroke-linecap="round" stroke-linejoin="round" stroke-width="37.7215"/>
</g>
</svg>
